<?xml version="1.0" standalone="no"?>
<!DOCTYPE svg PUBLIC "-//W3C//DTD SVG 20010904//EN"
 "http://www.w3.org/TR/2001/REC-SVG-20010904/DTD/svg10.dtd">
<svg version="1.0" xmlns="http://www.w3.org/2000/svg"
 width="383.000000pt" height="383.000000pt" viewBox="0 0 383.000000 383.000000"
 preserveAspectRatio="xMidYMid meet">
<metadata>
Created by potrace 1.11, written by Peter Selinger 2001-2013
</metadata>
<g transform="translate(0.000000,383.000000) scale(0.100000,-0.100000)"
fill="#000000" stroke="none">
<path d="M1756 3735 c-177 -61 -304 -211 -337 -397 -33 -185 62 -393 227 -498
116 -73 294 -92 426 -46 161 57 288 202 319 364 15 82 6 212 -19 278 -25 66
-92 164 -138 203 -48 39 -140 88 -201 106 -74 23 -195 18 -277 -10z"/>
<path d="M900 3297 c0 -13 73 -247 98 -312 152 -405 358 -708 695 -1023 37
-35 67 -68 67 -72 0 -5 -22 -28 -50 -51 -51 -43 -206 -213 -277 -304 -171
-219 -331 -534 -423 -830 -54 -176 -52 -181 39 -113 194 144 401 352 548 548
57 76 202 300 252 390 24 41 46 78 50 83 4 4 33 -45 65 -109 131 -263 291
-480 513 -695 133 -130 328 -286 337 -271 7 12 -41 181 -83 292 -147 390 -307
646 -582 927 -65 66 -119 126 -119 132 0 6 59 68 131 138 222 217 375 424 503
684 76 152 94 196 147 346 25 72 69 223 69 238 0 14 -86 -46 -198 -139 -71
-57 -273 -262 -344 -346 -85 -101 -195 -259 -247 -352 -67 -123 -149 -295
-170 -360 -21 -65 -34 -63 -60 5 -65 173 -230 474 -332 608 -153 199 -360 405
-550 547 -48 36 -79 51 -79 39z"/>
<path d="M503 2743 c-20 -7 -18 -1729 2 -1908 31 -290 81 -429 194 -548 114
-120 226 -173 461 -219 95 -18 156 -20 633 -25 664 -6 812 3 1023 68 242 74
386 232 447 494 41 170 42 208 42 1190 l0 950 -149 3 c-82 1 -153 -1 -158 -6
-4 -4 -10 -437 -12 -962 -4 -1023 -5 -1047 -56 -1182 -61 -162 -168 -220 -445
-238 -196 -13 -979 -12 -1170 0 -318 22 -410 88 -472 344 -13 52 -16 212 -20
1041 -3 667 -8 984 -15 992 -8 10 -49 13 -152 12 -77 0 -147 -3 -153 -6z"/>
</g>
</svg>
